<svg xmlns="http://www.w3.org/2000/svg" width="49.486" height="49.486" viewBox="0 0 49.486 49.486">
  <path id="food-delivery" d="M50.7,18.427a1.642,1.642,0,0,0-1.605-.072l-3.007,1.5a2.877,2.877,0,0,0-2.44-1.363h-8.88a6.008,6.008,0,0,0-.939-2.306A6.885,6.885,0,0,0,36.6,11.072h4.166V9.423H37.423a8.247,8.247,0,0,0-16.453.825.825.825,0,0,0,.825.825h.041a6.888,6.888,0,0,0,2.752,5.106,6.378,6.378,0,0,0-1.144,3.966v9.072A4.926,4.926,0,0,0,24.8,32.612a10.679,10.679,0,0,0-1.358-.1h-1.65v-16.5a.825.825,0,0,0-.825-.825H2.825A.825.825,0,0,0,2,16.021V36.64a.825.825,0,0,0,.825.825h5a10.644,10.644,0,0,0-1.7,5.773v3.3a.825.825,0,0,0,.825.825h5.773a4.124,4.124,0,0,0,8.248,0H41.589a4.124,4.124,0,0,0,8.248,0h.825a.825.825,0,0,0,.825-.825V38.29a5.777,5.777,0,0,0-4.949-5.707V22.3L49.1,23.585a1.65,1.65,0,0,0,2.388-1.476V19.83a1.637,1.637,0,0,0-.783-1.4Zm-25.61,9.966h8.248a.825.825,0,0,0,.825.825,7.432,7.432,0,0,1,7.423,7.423v2.474h-3.3v-1.65a4.954,4.954,0,0,0-4.949-4.949H28.393a3.3,3.3,0,0,1-3.3-3.3Zm13.2,12.372h3.9a7.052,7.052,0,0,1,2.5,2.474h-6.4Zm4.949-1.288V36.64a9.085,9.085,0,0,0-8.248-9.035V24.269h8.66a2.857,2.857,0,0,0,1.237-.289V40.785A10.5,10.5,0,0,0,43.239,39.476Zm-9.15-19.331h9.562a1.237,1.237,0,0,1,0,2.474H34.166a.825.825,0,0,0-.825.825v3.3H25.094v-6.6a4.438,4.438,0,0,1,1.135-3.3h5.958a4.407,4.407,0,0,1,1.09,2.612A.823.823,0,0,0,34.089,20.145ZM29.217,3.65a6.609,6.609,0,0,1,6.547,5.773H22.67A6.609,6.609,0,0,1,29.217,3.65Zm-5.728,7.423H34.946A5.087,5.087,0,0,1,32.3,15.2H26.139A5.09,5.09,0,0,1,23.489,11.072ZM18.815,32.517,20.1,28.653a.825.825,0,0,0-.783-1.085h-.5L20.1,23.7a.825.825,0,0,0-.783-1.085H4.474a.826.826,0,0,0-.783,1.086l1.287,3.862h-.5a.826.826,0,0,0-.783,1.086l1.287,3.862H3.65V20.145h16.5V32.517Zm-13.2-8.248h5.454v1.65h1.65v-1.65h5.454l-1.1,3.3H6.719Zm0,4.949h5.454v1.65h1.65v-1.65h5.454l-1.1,3.3H6.719ZM20.145,16.846V18.5H3.65v-1.65ZM3.65,35.816v-1.65h7.508a10.784,10.784,0,0,0-2.031,1.65Zm13.2,14.021a2.477,2.477,0,0,1-2.474-2.474H19.32A2.477,2.477,0,0,1,16.846,49.837Zm-5.773-4.124v-.825a7.423,7.423,0,0,1,14.846,0v.825Zm21.444,0H27.568v-.825a9.072,9.072,0,0,0-18.145,0v.825H7.773V43.239a9.083,9.083,0,0,1,9.072-9.072h6.6a9.083,9.083,0,0,1,9.072,9.072ZM29.133,34.166h4.209a3.3,3.3,0,0,1,3.3,3.3v5.773H34.166A10.713,10.713,0,0,0,29.133,34.166Zm5.034,11.547v-.825H44.888v.825Zm11.547,4.124a2.477,2.477,0,0,1-2.474-2.474h4.949A2.477,2.477,0,0,1,45.713,49.837ZM49.837,38.29v7.423h-3.3V34.249A4.132,4.132,0,0,1,49.837,38.29Zm0-16.18-2.28-1.14,2.28-1.14Z" transform="translate(-2 -2)" fill="#bd1d32"/>
</svg>
