<svg xmlns="http://www.w3.org/2000/svg" width="40.03" height="39.561" viewBox="0 0 40.03 39.561">
  <g id="money" transform="translate(0 -3)">
    <g id="Group_1835" data-name="Group 1835" transform="translate(23.452 22.796)">
      <g id="Group_1834" data-name="Group 1834">
        <path id="Path_9479" data-name="Path 9479" d="M303.238,261.843a1.5,1.5,0,1,1,1.72-1.489.782.782,0,1,0,1.564,0,3.111,3.111,0,0,0-2.5-2.964v-.407a.782.782,0,1,0-1.564,0v.407a3.111,3.111,0,0,0-2.5,2.964,3.178,3.178,0,0,0,3.284,3.052,1.5,1.5,0,1,1-1.72,1.489.782.782,0,1,0-1.564,0,3.111,3.111,0,0,0,2.5,2.964v.338a.782.782,0,1,0,1.564,0v-.338a3.111,3.111,0,0,0,2.5-2.964A3.178,3.178,0,0,0,303.238,261.843Z" transform="translate(-299.954 -256.201)" fill="#166fa8"/>
      </g>
    </g>
    <g id="Group_1837" data-name="Group 1837" transform="translate(30.017 20.027)">
      <g id="Group_1836" data-name="Group 1836" transform="translate(0 0)">
        <path id="Path_9480" data-name="Path 9480" d="M389.206,224.545a10.187,10.187,0,0,0-4.161-3.683.782.782,0,1,0-.678,1.409,8.608,8.608,0,0,1,3.877,11.789.782.782,0,1,0,1.38.734,10.175,10.175,0,0,0-.419-10.251Z" transform="translate(-383.924 -220.785)" fill="#166fa8"/>
      </g>
    </g>
    <g id="Group_1839" data-name="Group 1839" transform="translate(27.13 19.106)">
      <g id="Group_1838" data-name="Group 1838" transform="translate(0 0)">
        <path id="Path_9481" data-name="Path 9481" d="M347.834,209h-.053a.782.782,0,1,0,0,1.564h.049a.782.782,0,0,0,0-1.564Z" transform="translate(-347 -209.001)" fill="#166fa8"/>
      </g>
    </g>
    <g id="Group_1841" data-name="Group 1841" transform="translate(16.575 24.087)">
      <g id="Group_1840" data-name="Group 1840">
        <path id="Path_9482" data-name="Path 9482" d="M218.445,285.65a8.608,8.608,0,0,1-3.877-11.789.782.782,0,1,0-1.38-.734,10.168,10.168,0,0,0,4.58,13.933.782.782,0,1,0,.677-1.409Z" transform="translate(-212.002 -272.711)" fill="#166fa8"/>
      </g>
    </g>
    <g id="Group_1843" data-name="Group 1843" transform="translate(24.736 37.87)">
      <g id="Group_1842" data-name="Group 1842">
        <path id="Path_9483" data-name="Path 9483" d="M317.209,449h-.045a.782.782,0,0,0-.007,1.564h.052a.782.782,0,1,0,0-1.564Z" transform="translate(-316.378 -448.999)" fill="#166fa8"/>
      </g>
    </g>
    <g id="Group_1845" data-name="Group 1845" transform="translate(0 3)">
      <g id="Group_1844" data-name="Group 1844" transform="translate(0 0)">
        <path id="Path_9484" data-name="Path 9484" d="M30.289,16.461a3.589,3.589,0,0,0-.347-.639h2.035a3.6,3.6,0,1,0,0-7.193H25.716A3.594,3.594,0,0,0,22.751,3H3.6a3.6,3.6,0,0,0,0,7.193H9.857a3.586,3.586,0,0,0,0,4.066H7.818A3.594,3.594,0,0,0,5.583,20.67a3.59,3.59,0,0,0,0,5.629,3.59,3.59,0,0,0,0,5.629,3.594,3.594,0,0,0,2.235,6.411h9.214A13.288,13.288,0,1,0,30.289,16.461Zm1.688-6.268a2.033,2.033,0,1,1,0,4.066H12.822a2.033,2.033,0,0,1,0-4.066ZM3.6,8.629a2.033,2.033,0,1,1,0-4.066H22.751a2.033,2.033,0,0,1,0,4.066Zm4.222,7.193H26.973a2.032,2.032,0,0,1,.887.2c-.37-.031-.744-.048-1.121-.048a13.25,13.25,0,0,0-9.405,3.909H7.818a2.033,2.033,0,1,1,0-4.066Zm0,5.629H16a13.253,13.253,0,0,0-2.01,4.066H7.818a2.033,2.033,0,1,1,0-4.066Zm0,5.629h5.811a13.3,13.3,0,0,0-.048,4.066H7.818a2.033,2.033,0,1,1,0-4.066Zm0,9.695a2.033,2.033,0,0,1,0-4.066H13.9a13.239,13.239,0,0,0,1.876,4.066ZM26.739,41A11.728,11.728,0,1,1,38.466,29.27,11.741,11.741,0,0,1,26.739,41Z" transform="translate(0 -3)" fill="#166fa8"/>
      </g>
    </g>
  </g>
</svg>
