<svg xmlns="http://www.w3.org/2000/svg" width="44" height="43.743" viewBox="0 0 44 43.743">
  <g id="order-food" transform="translate(0 -1.445)">
    <g id="Group_1850" data-name="Group 1850" transform="translate(3.333 4.739)">
      <path id="Path_9485" data-name="Path 9485" d="M44.156,39.84H42.833V38.507h1.322Zm-2.656,0H40.167V38.507H41.5Zm-2.667,0H37.5V38.507h1.333Z" transform="translate(-37.5 -38.507)" fill="#12835b"/>
    </g>
    <g id="Group_1851" data-name="Group 1851" transform="translate(0 1.445)">
      <path id="Path_9486" data-name="Path 9486" d="M43.978,233.135a2.666,2.666,0,0,0-4.151-2.214,2.666,2.666,0,0,0-4-1.33,2.666,2.666,0,0,0-3.852-1.431v-3.049h4.234a3.333,3.333,0,1,0,0-6.667H27.322a3.333,3.333,0,0,0-.678,6.6v6.76l-1.329.026a2.672,2.672,0,0,0-2.571,1.985H2.444A1.112,1.112,0,0,1,1.333,232.7V219.022H0V232.7a2.447,2.447,0,0,0,2.444,2.444h20.21l-.01,5.081,1.448,2.671,1.172-.635-1.286-2.373.011-5.4a1.335,1.335,0,0,1,1.333-1.333l1.322-.026v6h1.333V223.807a1.333,1.333,0,0,1,2.667,0v11.334h1.333v-4.672a1.333,1.333,0,1,1,2.667,0v4.672h1.333v-3.333a1.333,1.333,0,1,1,2.667,0v3.333h1.333v-2.006a1.333,1.333,0,1,1,2.667,0l.022,9.445,1.333,0ZM29.311,221.141a2.67,2.67,0,0,0-2.662,2.52,2,2,0,0,1,.674-3.883h8.889a2,2,0,1,1,0,4H31.977A2.669,2.669,0,0,0,29.311,221.141Z" transform="translate(0 -199.155)" fill="#12835b"/>
      <path id="Path_9487" data-name="Path 9487" d="M1.333,9.451H42.656V32.112h1.333V3.889a2.447,2.447,0,0,0-2.444-2.444H2.444A2.447,2.447,0,0,0,0,3.889V19.934H1.333Zm0-5.561A1.112,1.112,0,0,1,2.444,2.778h39.1a1.112,1.112,0,0,1,1.111,1.111V8.117H1.333Z" transform="translate(0 -1.445)" fill="#12835b"/>
      <path id="Path_9488" data-name="Path 9488" d="M277.375,121.445h8v1.333h-8Z" transform="translate(-252.719 -110.778)" fill="#12835b"/>
      <path id="Path_9489" data-name="Path 9489" d="M277.375,150.507h13.333v1.333H277.375Z" transform="translate(-252.719 -137.257)" fill="#12835b"/>
      <path id="Path_9490" data-name="Path 9490" d="M352.375,181.144h1.363v1.333h-1.363Z" transform="translate(-321.053 -165.171)" fill="#12835b"/>
      <path id="Path_9491" data-name="Path 9491" d="M277.375,181.144h5.333v1.333h-5.333Z" transform="translate(-252.719 -165.171)" fill="#12835b"/>
      <path id="Path_9492" data-name="Path 9492" d="M32.322,126.653l1.17-1.809L34.5,135.929H47.744l.958-11.082,1.156,1.778,1.118-.727-2.087-3.209.043-.5h-3.17v-4.917l1.89.315.219-1.315-16-2.667-.219,1.315,7.443,1.241v1.43H31.762v1.333H39.1v3.265H33.251l.045.5L31.2,125.929Zm14.594-3.127L45.45,125.6l-8.484.028-1.625-2.1H46.916Zm-11.2,11.07-.864-9.525,1.463,1.888,9.827-.032,1.189-1.678-.808,9.347H35.715Zm8.713-12.4H43.1v-5.361l1.333.222Zm-4-5.806,1.333.222v5.584H40.429Z" transform="translate(-28.428 -103.639)" fill="#12835b"/>
    </g>
  </g>
</svg>
